# Blender 4.0.1
# www.blender.org
o Cube
v -1.000000 0.000000 0.000000
v 0.000000 -1.000000 0.000000
v 0.000000 1.000000 0.000000
v 0.000000 0.000000 1.000000
v 1.000000 0.000000 0.000000
v 0.000000 0.000000 -1.000000
vn -0.5774 -0.5774 0.5774
vn -0.5774 0.5774 0.5774
vn -0.5774 -0.5774 -0.5774
vn -0.5774 0.5774 -0.5774
vn 0.5774 -0.5774 0.5774
vn 0.5774 0.5774 0.5774
vn 0.5774 -0.5774 -0.5774
vn 0.5774 0.5774 -0.5774
vt 0.666492 0.288659
vt 0.499897 0.577210
vt 0.333302 0.288659
vt 0.166702 0.000107
vt 0.333298 0.288659
vt 0.000107 0.288659
vt 0.499897 0.000107
vt 0.166703 0.577210
vt 0.833087 0.577210
vt 0.499893 0.000107
vt 0.833087 0.000107
vt 0.499893 0.577210
s 0
f 2/1/1 4/2/1 1/3/1
f 4/4/2 3/5/2 1/6/2
f 2/1/3 1/3/3 6/7/3
f 3/5/4 6/8/4 1/6/4
f 2/1/5 5/9/5 4/2/5
f 3/5/6 4/4/6 5/10/6
f 2/1/7 6/7/7 5/11/7
f 3/5/8 5/12/8 6/8/8
